<svg width="365" height="128" viewBox="0 0 365 128" fill="none" xmlns="http://www.w3.org/2000/svg">
<path d="M35.3571 43.14L29.4171 42.54C15.4371 41.28 10.6371 37.68 10.6371 30.18C10.6371 22.74 15.2571 18.24 31.6371 18.24C39.9171 18.24 48.1371 19.44 54.3771 20.76L52.2171 27.54C46.6971 26.28 38.7771 25.2 31.0971 25.2C21.6771 25.2 18.9771 26.7 18.9771 30.18C18.9771 33.36 21.0771 34.5 30.7371 35.46L36.2571 35.94C50.7771 37.38 55.5771 40.98 55.5771 48.42C55.5771 55.92 51.1971 60.66 33.6771 60.66C25.3971 60.66 16.2771 59.46 10.0371 58.2L12.1971 51.36C17.7171 52.68 26.4771 53.7 34.2171 53.7C43.8771 53.7 47.1771 52.08 47.1771 48.72C47.1771 45.42 44.7771 44.1 35.3571 43.14ZM97.5382 42.78V60H89.3782V40.98C89.3782 36 87.0982 33.48 82.8982 33.48H81.2182C76.9582 33.48 73.4782 37.02 71.6182 42.78V60H63.4582V27H71.6182V32.88C74.1982 28.56 77.7982 26.7 82.0582 26.7H83.7382C89.9782 26.7 94.7182 29.52 96.5182 34.38C99.0382 29.28 103.178 26.7 108.158 26.7H109.838C118.118 26.7 123.518 31.5 123.518 39.42V60H115.358V40.98C115.358 36 112.898 33.48 108.758 33.48H107.318C103.118 33.48 99.3982 37.02 97.5382 42.78ZM169.375 60.3H161.215V57.12C157.855 59.7 153.175 60.9 148.015 60.9H146.935C135.655 60.9 130.375 57.96 130.375 51.06V49.5C130.375 42.48 135.235 39.18 148.075 39.18H150.115C153.895 39.18 157.675 39.78 161.215 40.98V40.08C161.215 35.52 159.055 33.48 151.195 33.48C145.195 33.48 139.915 34.32 134.635 35.64L132.475 28.86C138.055 27.48 143.695 26.76 150.835 26.7C164.875 26.58 169.375 31.68 169.375 39.6V60.3ZM146.935 54.18H148.015C153.475 54.18 157.615 53.28 161.215 50.94V47.82C157.255 46.44 153.535 45.9 149.155 45.9H147.475C140.755 45.9 138.595 47.4 138.595 49.68V50.7C138.595 52.8 140.455 54.18 146.935 54.18ZM187.106 41.52V60H178.946V27H187.106V32.94C190.346 28.92 194.366 26.7 201.086 26.7H201.986C206.126 26.7 209.906 27.18 214.106 28.56L212.006 34.98C208.526 33.78 205.466 33.48 201.986 33.54H201.086C194.966 33.54 190.166 36.66 187.106 41.52ZM224.595 50.52V35.64H216.435V28.8H224.595V19.14H232.815V28.8H248.715V35.64H232.815V49.5C232.815 52.44 234.075 53.58 238.095 53.58C242.355 53.58 245.955 52.92 250.275 51.72L248.475 58.74C244.155 59.7 240.975 60.18 235.635 60.18C228.195 60.18 224.595 57 224.595 50.52Z" fill="black"/>
<path d="M72.2005 65.16V101.704H108.873L106.377 109H63.4325V65.16H72.2005ZM120.766 88.392H147.39C147.39 82.312 144.894 80.712 136.574 80.712H130.75C122.686 80.712 118.462 84.168 118.462 90.248V93.192C118.462 99.272 122.686 102.792 130.75 102.792H134.782C141.95 102.792 148.35 101.896 153.982 100.168L156.286 107.336C150.398 109 143.038 109.96 134.782 109.96H130.942C118.014 109.96 109.63 104.072 109.63 93.192V90.248C109.63 79.368 118.014 73.48 130.942 73.48H136.126C149.054 73.48 156.158 77.704 156.158 88.584V95.56H123.262L120.766 88.392ZM208.986 109H200.282V103.88C195.866 107.336 190.618 109.32 184.73 109.32H183.13C170.202 109.32 161.818 103.432 161.818 92.552V90.248C161.818 79.368 170.202 73.48 183.13 73.48H184.73C191.898 73.48 197.21 75.848 200.282 79.496V62.088H208.986V109ZM170.586 90.312V92.488C170.586 98.568 175.385 102.088 182.938 102.088H184.73C191.706 102.088 195.482 100.424 200.282 95.688V88.072C196.89 83.72 191.257 80.712 184.73 80.712H182.938C175.385 80.712 170.586 84.232 170.586 90.312ZM264.173 73.8V105.224C264.173 115.336 256.365 120.584 238.637 120.584C232.685 120.584 225.709 119.816 220.653 118.472L218.797 110.728C224.173 112.328 230.957 113.352 238.637 113.352C251.437 113.352 255.469 110.6 255.469 104.904V100.68C251.053 104.136 245.805 106.12 239.917 106.12H238.317C225.389 106.12 217.005 102.152 217.005 91.272V88.968C217.005 78.088 225.389 72.84 238.317 72.84H239.917C247.085 72.84 252.397 75.208 255.469 78.856V73.8H264.173ZM225.773 89.032V91.208C225.773 97.288 230.573 98.888 238.125 98.888H239.917C246.893 98.888 250.669 97.224 255.469 92.488V87.432C252.077 83.08 246.445 80.072 239.917 80.072H238.125C230.573 80.072 225.773 82.952 225.773 89.032ZM283.329 88.392H309.953C309.953 82.312 307.457 80.712 299.137 80.712H293.313C285.249 80.712 281.025 84.168 281.025 90.248V93.192C281.025 99.272 285.249 102.792 293.313 102.792H297.345C304.513 102.792 310.913 101.896 316.545 100.168L318.849 107.336C312.961 109 305.601 109.96 297.345 109.96H293.505C280.577 109.96 272.193 104.072 272.193 93.192V90.248C272.193 79.368 280.577 73.48 293.505 73.48H298.689C311.617 73.48 318.721 77.704 318.721 88.584V95.56H285.825L283.329 88.392ZM335.324 89.288V109H326.62V73.8H335.324V80.136C338.78 75.848 343.068 73.48 350.236 73.48H351.196C355.612 73.48 359.644 73.992 364.124 75.464L361.884 82.312C358.172 81.032 354.908 80.712 351.196 80.776H350.236C343.708 80.776 338.588 84.104 335.324 89.288Z" fill="black"/>
<circle cx="348.5" cy="93.5" r="6.5" fill="#B4DE00"/>
<circle cx="6.5" cy="12.5" r="6.5" fill="#B4DE00"/>
</svg>
