<svg width="373" height="138" viewBox="0 0 373 138" fill="none" xmlns="http://www.w3.org/2000/svg">
<path d="M25.1487 45.66L23.0487 39.18H39.0087C45.9687 39.18 48.7887 36.6 48.7887 32.58V32.16C48.7887 28.38 45.9687 26.22 39.0087 26.22H20.6487V60H12.4287V19.14H39.3087C49.8687 19.14 57.2487 23.4 57.2487 31.26V33.42C57.2487 39.84 51.8487 44.58 44.2887 45.48L57.7887 59.76V60H47.9487L34.2087 45.66H25.1487ZM72.7357 40.68H97.6957C97.6957 34.98 95.3557 33.48 87.5557 33.48H82.0957C74.5357 33.48 70.5757 36.72 70.5757 42.42V45.18C70.5757 50.88 74.5357 54.18 82.0957 54.18H85.8757C92.5957 54.18 98.5957 53.34 103.876 51.72L106.036 58.44C100.516 60 93.6157 60.9 85.8757 60.9H82.2757C70.1557 60.9 62.2957 55.38 62.2957 45.18V42.42C62.2957 32.22 70.1557 26.7 82.2757 26.7H87.1357C99.2557 26.7 105.916 30.66 105.916 40.86V47.4H75.0757L72.7357 40.68ZM119.501 42.42V45.18C119.501 50.88 123.941 54.06 131.021 54.06H133.601C139.601 54.06 145.121 53.34 150.401 51.9L152.561 58.74C146.981 60.12 140.741 60.9 133.601 60.9H131.201C119.081 60.9 111.221 55.38 111.221 45.18V42.42C111.221 32.22 119.081 26.7 131.201 26.7H133.601C140.741 26.7 146.381 27.48 151.961 28.86L149.801 35.7C144.521 34.38 139.601 33.54 133.601 33.54H131.021C123.941 33.54 119.501 36.72 119.501 42.42ZM167.833 40.68H192.793C192.793 34.98 190.453 33.48 182.653 33.48H177.193C169.633 33.48 165.673 36.72 165.673 42.42V45.18C165.673 50.88 169.633 54.18 177.193 54.18H180.973C187.693 54.18 193.693 53.34 198.973 51.72L201.133 58.44C195.613 60 188.713 60.9 180.973 60.9H177.373C165.253 60.9 157.393 55.38 157.393 45.18V42.42C157.393 32.22 165.253 26.7 177.373 26.7H182.233C194.353 26.7 201.013 30.66 201.013 40.86V47.4H170.173L167.833 40.68ZM208.659 23.28V14.28H217.959V23.28H208.659ZM209.439 35.4H205.059V28.86H217.659V60H209.439V35.4ZM227.345 27H235.505V31.5C239.645 28.26 244.565 26.4 250.085 26.4H251.585C263.705 26.4 271.565 31.92 271.565 42.12V44.58C271.565 54.78 263.705 60.3 251.585 60.3H250.085C243.365 60.3 238.385 58.08 235.505 54.66V69.6H227.345V27ZM263.345 44.52V42.18C263.345 36.48 258.845 33.18 251.765 33.18H250.085C243.545 33.18 240.005 34.74 235.505 39.18V46.62C238.685 50.7 243.965 53.52 250.085 53.52H251.765C258.845 53.52 263.345 50.22 263.345 44.52ZM284.243 50.52V35.64H276.083V28.8H284.243V19.14H292.463V28.8H308.363V35.64H292.463V49.5C292.463 52.44 293.723 53.58 297.743 53.58C302.003 53.58 305.603 52.92 309.923 51.72L308.123 58.74C303.803 59.7 300.623 60.18 295.283 60.18C287.843 60.18 284.243 57 284.243 50.52Z" fill="black"/>
<path d="M47.388 75.16V111.704H84.06L81.564 119H38.62V75.16H47.388ZM110.866 119.32H107.73C94.8015 119.32 84.8175 112.92 84.8175 102.04V100.568C84.8175 89.688 94.8015 83.288 107.73 83.288H110.866C123.794 83.288 133.714 89.688 133.714 100.568V102.04C133.714 112.92 123.794 119.32 110.866 119.32ZM107.538 112.024H111.058C118.546 112.024 124.882 108.12 124.882 102.04V100.568C124.882 94.488 118.546 90.584 111.058 90.584H107.538C99.9855 90.584 93.6495 94.488 93.6495 100.568V102.04C93.6495 108.12 99.9855 112.024 107.538 112.024ZM180.848 119.32H172.144V115.928C168.56 118.68 163.568 119.96 158.064 119.96H156.912C144.88 119.96 139.248 116.824 139.248 109.464V107.8C139.248 100.312 144.432 96.792 158.128 96.792H160.304C164.336 96.792 168.368 97.432 172.144 98.712V97.752C172.144 92.888 169.84 90.712 161.456 90.712C155.056 90.712 149.424 91.608 143.792 93.016L141.488 85.784C147.44 84.312 153.456 83.544 161.072 83.48C176.048 83.352 180.848 88.792 180.848 97.24V119.32ZM156.912 112.792H158.064C163.888 112.792 168.304 111.832 172.144 109.336V106.008C167.92 104.536 163.952 103.96 159.28 103.96H157.488C150.32 103.96 148.016 105.56 148.016 107.992V109.08C148.016 111.32 150 112.792 156.912 112.792ZM235.986 119H227.282V113.88C222.866 117.336 217.618 119.32 211.73 119.32H210.13C197.202 119.32 188.818 113.432 188.818 102.552V100.248C188.818 89.368 197.202 83.48 210.13 83.48H211.73C218.898 83.48 224.21 85.848 227.282 89.496V72.088H235.986V119ZM197.586 100.312V102.488C197.586 108.568 202.385 112.088 209.938 112.088H211.73C218.706 112.088 222.482 110.424 227.282 105.688V98.072C223.89 93.72 218.257 90.712 211.73 90.712H209.938C202.385 90.712 197.586 94.232 197.586 100.312ZM246.501 79.832V70.232H256.421V79.832H246.501ZM247.333 92.76H242.661V85.784H256.101V119H247.333V92.76ZM266.433 83.8H275.137V89.496C278.208 85.848 283.521 83.48 290.689 83.48H292.289C305.217 83.48 312.961 89.368 312.961 100.248V119H304.193V100.312C304.193 94.232 300.033 90.712 292.481 90.712H290.689C284.161 90.712 279.169 93.592 275.137 98.392V119H266.433V83.8ZM367.361 83.8V115.224C367.361 125.336 359.553 130.584 341.825 130.584C335.873 130.584 328.897 129.816 323.841 128.472L321.985 120.728C327.361 122.328 334.145 123.352 341.825 123.352C354.625 123.352 358.657 120.6 358.657 114.904V110.68C354.241 114.136 348.993 116.12 343.105 116.12H341.505C328.577 116.12 320.193 112.152 320.193 101.272V98.968C320.193 88.088 328.577 82.84 341.505 82.84H343.105C350.273 82.84 355.585 85.208 358.657 88.856V83.8H367.361ZM328.961 99.032V101.208C328.961 107.288 333.76 108.888 341.313 108.888H343.105C350.081 108.888 353.857 107.224 358.657 102.488V97.432C355.265 93.08 349.632 90.072 343.105 90.072H341.313C333.76 90.072 328.961 92.952 328.961 99.032Z" fill="black"/>
<circle cx="6.5" cy="12.5" r="6.5" fill="#B4DE00"/>
<circle cx="290.5" cy="103.5" r="6.5" fill="#B4DE00"/>
</svg>